<svg width="96" height="83" viewBox="0 0 96 83" fill="none" xmlns="http://www.w3.org/2000/svg">
<path fill-rule="evenodd" clip-rule="evenodd" d="M52.9795 9.05355L48.5054 13.969L44.0313 9.05355C42.2978 7.14903 39.8644 6.04993 37.24 6.04993C32.1705 6.04993 28.0608 10.1596 28.0608 15.2291V36.9447C28.0608 42.0143 32.1705 46.124 37.24 46.124C39.8644 46.124 42.2978 45.0249 44.0313 43.1203L48.5054 38.2049L52.9795 43.1203C54.713 45.0249 57.1464 46.124 59.7708 46.124C64.8404 46.124 68.95 42.0143 68.95 36.9447V15.2291C68.95 10.1596 64.8404 6.04993 59.7708 6.04993C57.1464 6.04993 54.713 7.14903 52.9795 9.05355Z" stroke="white" stroke-width="12.0999"/>
</svg>
