<svg width="96" height="83" viewBox="0 0 96 83" fill="none" xmlns="http://www.w3.org/2000/svg">
<g clip-path="url(#clip0_1_50)">
<path fill-rule="evenodd" clip-rule="evenodd" d="M52.9862 9.84769L48.5 14.5079L44.0138 9.84769C42.2756 8.04204 39.8356 7 37.2041 7C32.1208 7 28 10.8963 28 15.7027V36.2909C28 41.0972 32.1208 44.9935 37.2041 44.9935C39.8356 44.9935 42.2756 43.9515 44.0138 42.1459L48.5 37.4856L52.9862 42.1459C54.7244 43.9515 57.1644 44.9935 59.7959 44.9935C64.8792 44.9935 69 41.0972 69 36.2909V15.7027C69 10.8963 64.8792 7 59.7959 7C57.1644 7 54.7244 8.04204 52.9862 9.84769Z" stroke="url(#paint0_linear_1_50)" stroke-width="12.0999"/>
<path d="M0.764266 79.8967C0.2866 79.8967 0 79.6096 0 79.1274V63.9708C0 63.3852 0.406017 63.0063 1.01504 63.0063C1.56436 63.0063 1.88678 63.2589 2.13756 63.8215L8.26363 77.6691H8.33528L14.4375 63.8215C14.6882 63.2589 15.0346 63.0063 15.5839 63.0063C16.1929 63.0063 16.5989 63.3852 16.5989 63.9708V79.1274C16.5989 79.6096 16.3123 79.8967 15.8346 79.8967C15.357 79.8967 15.0704 79.6096 15.0704 79.1274V66.141H14.9987L9.29061 79.0011C9.07566 79.4833 8.77712 79.69 8.29945 79.69C7.82179 79.69 7.5113 79.4833 7.3083 79.0241L1.60018 66.141H1.52853V79.1274C1.52853 79.6096 1.22999 79.8967 0.764266 79.8967ZM31.0284 80C26.2279 80 23.2066 76.7046 23.2066 71.4572C23.2066 66.2098 26.2279 62.903 31.0284 62.903C35.829 62.903 38.8621 66.2098 38.8621 71.4572C38.8621 76.7046 35.8409 80 31.0284 80ZM31.0284 78.5418C34.802 78.5418 37.1903 75.7975 37.1903 71.4572C37.1903 67.1055 34.802 64.3612 31.0284 64.3612C27.2549 64.3612 24.8785 67.1055 24.8785 71.4572C24.8785 75.7975 27.2549 78.5418 31.0284 78.5418ZM46.27 79.8967C45.7803 79.8967 45.4699 79.5867 45.4699 79.0815V63.9134C45.4699 63.3622 45.8401 63.0063 46.4013 63.0063C46.8312 63.0063 47.0581 63.1326 47.3447 63.5345L57.1846 77.0032H57.2682V63.8215C57.2682 63.3163 57.5787 63.0063 58.0803 63.0063C58.5699 63.0063 58.8803 63.3163 58.8803 63.8215V79.0585C58.8803 79.5867 58.546 79.8967 57.9847 79.8967C57.5548 79.8967 57.3518 79.7934 57.0652 79.403L47.1656 65.8883H47.082V79.0815C47.082 79.5867 46.7715 79.8967 46.27 79.8967ZM66.9927 79.736C66.4912 79.736 66.1807 79.4259 66.1807 78.9207V63.9823C66.1807 63.4771 66.4912 63.167 66.9927 63.167H75.9609C76.4266 63.167 76.7491 63.4541 76.7491 63.8789C76.7491 64.2923 76.4266 64.5908 75.9609 64.5908H67.8047V70.5501H75.531C75.9967 70.5501 76.3072 70.8372 76.3072 71.2506C76.3072 71.6639 75.9967 71.951 75.531 71.951H67.8047V78.3122H75.9609C76.4266 78.3122 76.7491 78.6107 76.7491 79.0241C76.7491 79.4489 76.4266 79.736 75.9609 79.736H66.9927ZM89.1127 79.8967C88.6111 79.8967 88.2887 79.5867 88.2887 79.0815V72.571L82.5209 64.2234C82.3895 64.0282 82.3537 63.8789 82.3537 63.6952C82.3537 63.3048 82.7 63.0063 83.1418 63.0063C83.4762 63.0063 83.6673 63.1211 83.8703 63.4197L89.0768 71.0324H89.1365L94.3431 63.4197C94.5461 63.1211 94.7372 63.0063 95.0715 63.0063C95.5134 63.0063 95.8597 63.3048 95.8597 63.6952C95.8597 63.8789 95.8119 64.0282 95.6806 64.2234L89.9247 72.571V79.0815C89.9247 79.5867 89.6023 79.8967 89.1127 79.8967Z" fill="#1D1D1D"/>
<path d="M0.764266 79.8967C0.2866 79.8967 0 79.6096 0 79.1274V63.9708C0 63.3852 0.406017 63.0063 1.01504 63.0063C1.56436 63.0063 1.88678 63.2589 2.13756 63.8215L8.26363 77.6691H8.33528L14.4375 63.8215C14.6882 63.2589 15.0346 63.0063 15.5839 63.0063C16.1929 63.0063 16.5989 63.3852 16.5989 63.9708V79.1274C16.5989 79.6096 16.3123 79.8967 15.8346 79.8967C15.357 79.8967 15.0704 79.6096 15.0704 79.1274V66.141H14.9987L9.29061 79.0011C9.07566 79.4833 8.77712 79.69 8.29945 79.69C7.82179 79.69 7.5113 79.4833 7.3083 79.0241L1.60018 66.141H1.52853V79.1274C1.52853 79.6096 1.22999 79.8967 0.764266 79.8967ZM31.0284 80C26.2279 80 23.2066 76.7046 23.2066 71.4572C23.2066 66.2098 26.2279 62.903 31.0284 62.903C35.829 62.903 38.8621 66.2098 38.8621 71.4572C38.8621 76.7046 35.8409 80 31.0284 80ZM31.0284 78.5418C34.802 78.5418 37.1903 75.7975 37.1903 71.4572C37.1903 67.1055 34.802 64.3612 31.0284 64.3612C27.2549 64.3612 24.8785 67.1055 24.8785 71.4572C24.8785 75.7975 27.2549 78.5418 31.0284 78.5418ZM46.27 79.8967C45.7803 79.8967 45.4699 79.5867 45.4699 79.0815V63.9134C45.4699 63.3622 45.8401 63.0063 46.4013 63.0063C46.8312 63.0063 47.0581 63.1326 47.3447 63.5345L57.1846 77.0032H57.2682V63.8215C57.2682 63.3163 57.5787 63.0063 58.0803 63.0063C58.5699 63.0063 58.8803 63.3163 58.8803 63.8215V79.0585C58.8803 79.5867 58.546 79.8967 57.9847 79.8967C57.5548 79.8967 57.3518 79.7934 57.0652 79.403L47.1656 65.8883H47.082V79.0815C47.082 79.5867 46.7715 79.8967 46.27 79.8967ZM66.9927 79.736C66.4912 79.736 66.1807 79.4259 66.1807 78.9207V63.9823C66.1807 63.4771 66.4912 63.167 66.9927 63.167H75.9609C76.4266 63.167 76.7491 63.4541 76.7491 63.8789C76.7491 64.2923 76.4266 64.5908 75.9609 64.5908H67.8047V70.5501H75.531C75.9967 70.5501 76.3072 70.8372 76.3072 71.2506C76.3072 71.6639 75.9967 71.951 75.531 71.951H67.8047V78.3122H75.9609C76.4266 78.3122 76.7491 78.6107 76.7491 79.0241C76.7491 79.4489 76.4266 79.736 75.9609 79.736H66.9927ZM89.1127 79.8967C88.6111 79.8967 88.2887 79.5867 88.2887 79.0815V72.571L82.5209 64.2234C82.3895 64.0282 82.3537 63.8789 82.3537 63.6952C82.3537 63.3048 82.7 63.0063 83.1418 63.0063C83.4762 63.0063 83.6673 63.1211 83.8703 63.4197L89.0768 71.0324H89.1365L94.3431 63.4197C94.5461 63.1211 94.7372 63.0063 95.0715 63.0063C95.5134 63.0063 95.8597 63.3048 95.8597 63.6952C95.8597 63.8789 95.8119 64.0282 95.6806 64.2234L89.9247 72.571V79.0815C89.9247 79.5867 89.6023 79.8967 89.1127 79.8967Z" fill="url(#paint1_linear_1_50)"/>
</g>
<defs>
<linearGradient id="paint0_linear_1_50" x1="-1299.28" y1="-344.708" x2="4568.63" y2="4313.65" gradientUnits="userSpaceOnUse">
<stop stop-color="#00DBDE"/>
<stop offset="1" stop-color="#F407FE"/>
</linearGradient>
<linearGradient id="paint1_linear_1_50" x1="-519.434" y1="875.59" x2="10737.3" y2="3047.59" gradientUnits="userSpaceOnUse">
<stop stop-color="#C432F8"/>
<stop offset="1" stop-color="#42A2E7"/>
</linearGradient>
<clipPath id="clip0_1_50">
<rect width="96" height="83" fill="white"/>
</clipPath>
</defs>
</svg>
