<svg width="19" height="16" viewBox="0 0 19 16" fill="none" xmlns="http://www.w3.org/2000/svg">
<g clip-path="url(#clip0_11_11)">
<mask id="mask0_11_11" style="mask-type:luminance" maskUnits="userSpaceOnUse" x="0" y="1" width="19" height="15">
<path d="M19 1H0V16H19V1Z" fill="white"/>
</mask>
<g mask="url(#mask0_11_11)">
<path d="M18.625 8.70508C18.625 8.59766 18.5859 8.50977 18.5078 8.43164L11.9062 1.79102C11.7598 1.625 11.6523 1.58594 11.5449 1.58594C11.3301 1.58594 11.1641 1.75195 11.1641 1.95703C11.1641 2.06445 11.1934 2.16211 11.2715 2.23047L15.168 6.13672L17.502 8.39258L15.3633 8.33398H0.861328C0.65625 8.33398 0.490234 8.49023 0.490234 8.70508C0.490234 8.91992 0.65625 9.07617 0.861328 9.07617H15.3633L17.502 9.02734L15.168 11.2734L11.2715 15.1797C11.2031 15.248 11.1641 15.3555 11.1641 15.4629C11.1641 15.6582 11.3301 15.8242 11.5449 15.8242C11.6523 15.8242 11.7402 15.7852 11.8184 15.707L18.5078 8.97852C18.5859 8.90039 18.625 8.8125 18.625 8.70508Z" fill="white"/>
</g>
</g>
<defs>
<clipPath id="clip0_11_11">
<rect width="19" height="14.8225" fill="white" transform="translate(0 0.656799)"/>
</clipPath>
</defs>
</svg>
