<svg width="19" height="16" viewBox="0 0 19 16" fill="none" xmlns="http://www.w3.org/2000/svg">
<g clip-path="url(#clip0_15_119)">
<mask id="mask0_15_119" style="mask-type:luminance" maskUnits="userSpaceOnUse" x="0" y="2" width="19" height="15">
<path d="M19 2H0V17H19V2Z" fill="white"/>
</mask>
<g mask="url(#mask0_15_119)">
<path d="M18.625 9.41211C18.625 9.30027 18.5848 9.20876 18.5046 9.12742L11.7246 2.21352C11.5742 2.04067 11.4638 2 11.3535 2C11.1329 2 10.9624 2.17285 10.9624 2.38636C10.9624 2.4982 10.9925 2.59988 11.0727 2.67106L15.0745 6.73806L17.4716 9.08675L15.2751 9.02574H0.381126C0.170504 9.02574 0 9.18842 0 9.41211C0 9.63579 0.170504 9.79847 0.381126 9.79847H15.2751L17.4716 9.74763L15.0745 12.0861L11.0727 16.1532C11.0025 16.2243 10.9624 16.3362 10.9624 16.448C10.9624 16.6514 11.1329 16.8242 11.3535 16.8242C11.4638 16.8242 11.5541 16.7836 11.6344 16.7022L18.5046 9.6968C18.5848 9.61546 18.625 9.52395 18.625 9.41211Z" fill="#4960F9"/>
</g>
</g>
<defs>
<clipPath id="clip0_15_119">
<rect width="19" height="14.8225" fill="white" transform="translate(0 0.50885)"/>
</clipPath>
</defs>
</svg>
