<svg xmlns="http://www.w3.org/2000/svg" width="24" height="25" viewBox="0 0 24 25" fill="none">
  <path d="M16 2.5H8C4 2.5 2 4.5 2 8.5V21.5C2 22.05 2.45 22.5 3 22.5H16C20 22.5 22 20.5 22 16.5V8.5C22 4.5 20 2.5 16 2.5Z" stroke="#171717" stroke-width="1.5" stroke-linecap="round" stroke-linejoin="round"/>
  <path d="M12.91 8.33991L7.72 13.5299C7.52 13.7299 7.33001 14.1199 7.29001 14.3999L7.01001 16.3799C6.91001 17.0999 7.41001 17.5999 8.13001 17.4999L10.11 17.2199C10.39 17.1799 10.78 16.9899 10.98 16.7899L16.17 11.5999C17.06 10.7099 17.49 9.66991 16.17 8.34991C14.85 7.01991 13.81 7.43991 12.91 8.33991Z" stroke="#171717" stroke-width="1.5" stroke-miterlimit="10" stroke-linecap="round" stroke-linejoin="round"/>
  <path d="M12.17 9.07983C12.61 10.6498 13.84 11.8898 15.42 12.3298" stroke="#171717" stroke-width="1.5" stroke-miterlimit="10" stroke-linecap="round" stroke-linejoin="round"/>
</svg>